<?xml version="1.0" encoding="utf-8"?>
<!-- Generator: Adobe Illustrator 17.0.0, SVG Export Plug-In . SVG Version: 6.00 Build 0)  -->
<!DOCTYPE svg PUBLIC "-//W3C//DTD SVG 1.1//EN" "http://www.w3.org/Graphics/SVG/1.1/DTD/svg11.dtd">
<svg version="1.1" id="Layer_1" xmlns="http://www.w3.org/2000/svg" xmlns:xlink="http://www.w3.org/1999/xlink" x="0px" y="0px"
	 width="479.118px" height="102.314px" viewBox="58.081 369.478 479.118 102.314"
	 enable-background="new 58.081 369.478 479.118 102.314" xml:space="preserve">
<title>101domain logo</title>
<path fill="#92864F" d="M192.639,371.338L192.639,371.338h-24.183l-0.827,2.48l-0.62,1.654c-1.24,3.927-1.24,3.927-8.268,5.374
	l-2.48,0.62l-0.62,3.307c-2.274-6.201-15.295-12.815-15.295-12.815l0.207,0.207c-3.721-1.86-7.854-2.687-11.988-2.687
	c-5.374,0-10.748,1.447-15.502,4.134c-2.894,1.654-5.167,3.927-7.234,6.408l-6.614-8.681v-0.207l-23.977,0.207l-0.827,2.274
	l-0.62,1.86c-1.24,3.927-1.24,3.927-8.268,5.374l-2.48,0.62l-3.514,21.083l0,0l6.614,6.614l-7.441,51.054l-0.62,3.927l0,0
	l7.234,8.061h25.837l3.1-20.256c0.62,1.447,1.24,3.1,2.067,4.341c0.413,0.62,0.827,1.24,1.24,1.654c0,0.207,0.207,0.413,0.207,0.413
	c2.894,3.307,5.994,6.408,9.095,9.301c2.067,1.24,4.134,2.274,6.408,2.894c2.274,0.827,4.547,1.24,7.028,1.447
	c4.754,0.207,9.301-0.207,14.055-1.447c7.234-1.86,13.022-7.028,15.709-14.055c1.654-3.721,3.514-16.329,3.514-16.329l3.721-24.803
	l0.827-6.201l1.447,1.447l-7.854,53.12l0,0l8.268,8.268h26.044l13.435-91.152L192.639,371.338z"/>
<path fill="#FECD27" d="M78.957,376.506l-0.413,0.62c-1.86,5.581-2.687,6.614-10.955,8.681l-1.86,11.782h7.648l-9.301,61.388h16.536
	l12.608-82.678L78.957,376.506z"/>
<path fill="#FFFFFF" d="M83.298,461.871h-22.53l9.095-61.595h-7.648l2.894-17.156l1.033-0.207c8.061-1.86,8.268-2.067,9.921-6.821
	l0.62-1.86l0.413-1.033h20.049L83.298,461.871z M64.075,458.977h16.536l12.608-82.678l-14.469,0.207l-0.207,0.62
	c-1.86,5.581-2.687,6.614-10.955,8.681l-1.86,11.782h7.648L64.075,458.977z"/>
<path fill="#FFFFFF" d="M116.989,463.317c-3.927,0.207-7.854-0.413-11.575-1.86c-3.1-1.24-5.581-3.307-7.028-6.201
	c-1.447-2.687-2.48-5.374-2.894-8.474c-0.207-4.547,0-9.095,0.827-13.642l4.341-29.764c0.827-6.201,2.274-12.195,4.547-17.982
	c1.86-4.134,5.167-7.854,9.095-10.128c4.341-2.48,9.301-3.927,14.262-3.72c3.927,0,7.854,0.827,11.575,2.687
	c2.894,1.447,5.374,3.721,7.028,6.614c1.447,2.687,2.274,5.581,2.274,8.681c0,4.754-0.413,9.715-1.24,14.469l-4.134,28.524
	c-0.62,4.961-1.654,9.715-3.1,14.469c-1.24,3.307-3.1,6.201-5.374,8.681c-2.274,2.687-5.167,4.547-8.474,5.994
	C124.017,462.904,120.71,463.524,116.989,463.317L116.989,463.317z M128.771,374.645c-4.547,0-8.888,1.033-12.815,3.307
	c-3.514,2.067-6.201,5.167-8.061,8.681c-2.274,5.581-3.72,11.368-4.341,17.156l-4.341,29.971c-0.827,4.134-1.033,8.474-0.827,12.815
	c0.413,2.687,1.24,5.167,2.48,7.441c1.24,2.274,3.307,3.927,5.581,4.961c3.307,1.24,7.028,1.86,10.541,1.654
	c3.1,0,6.201-0.62,9.095-1.654s5.374-2.894,7.441-5.167c2.067-2.274,3.721-4.961,4.754-7.854c1.447-4.547,2.48-9.095,2.894-13.849
	l4.134-28.524c0.827-4.547,1.24-9.095,1.447-13.849c0-2.48-0.827-5.167-1.86-7.234c-1.447-2.274-3.514-4.134-5.787-5.374
	C135.798,375.472,132.284,374.645,128.771,374.645L128.771,374.645z"/>
<path fill="#FECD27" d="M146.753,389.734c0-2.48-0.827-5.167-1.86-7.234c-1.447-2.274-3.514-4.134-5.787-5.374
	c-3.1-1.654-6.614-2.274-10.128-2.274c-4.547,0-8.888,1.033-12.815,3.307c-3.514,2.067-6.201,5.167-8.061,8.681
	c-2.274,5.581-3.72,11.368-4.341,17.156l-4.547,29.764c-0.827,4.134-1.033,8.474-0.827,12.815c0.413,2.687,1.24,5.167,2.48,7.441
	c1.24,2.274,3.307,3.927,5.581,4.961c3.307,1.24,7.028,1.86,10.541,1.654c3.1,0,6.201-0.62,9.095-1.654s5.374-2.894,7.441-5.167
	c2.067-2.274,3.721-4.961,4.754-7.854c1.447-4.547,2.48-9.095,2.894-13.849l4.134-28.524
	C146.34,399.035,146.753,394.281,146.753,389.734z M131.871,388.287c-0.207,3.1-0.62,5.994-1.24,8.888l-6.821,42.372
	c-0.413,2.894-1.033,5.787-1.654,8.474c-1.24,3.721-3.514,4.341-4.754,4.341s-2.274-0.413-3.1-1.24
	c-1.033-1.033-1.447-2.48-1.447-3.927c0.207-3.1,0.62-6.408,1.24-9.508l6.821-41.546c0.413-2.894,1.033-5.994,1.654-8.888
	c1.24-3.927,3.514-4.341,4.754-4.341s2.274,0.413,3.1,1.24C131.664,385.187,132.078,386.634,131.871,388.287L131.871,388.287z"/>
<path fill="#FFFFFF" d="M130.631,383.947c-0.827-0.827-1.86-1.24-3.1-1.24c-1.24,0-3.72,0.62-4.754,4.341
	c-0.827,2.894-1.24,5.994-1.654,8.888l-6.821,41.752c-0.62,3.1-1.033,6.408-1.24,9.508c0,1.447,0.413,2.894,1.447,3.927
	c0.827,0.827,1.86,1.24,3.1,1.24c1.24,0,3.721-0.62,4.754-4.341c0.827-2.687,1.24-5.581,1.654-8.474l6.821-42.372
	c0.62-2.894,1.033-5.994,1.24-8.888C132.078,386.634,131.664,385.187,130.631,383.947z M127.737,396.762l-6.821,42.372
	c-0.62,4.134-1.24,6.821-1.654,8.061c-0.207,0.62-0.62,2.274-2.067,2.274c-0.413,0-0.62-0.207-1.033-0.413
	c-0.207-0.413-0.413-1.24-0.413-1.86c0.207-3.1,0.62-5.994,1.24-9.095l6.821-41.752c0.413-2.894,1.033-5.787,1.654-8.474
	c0.207-0.62,0.62-2.274,2.067-2.274c0.413,0,0.62,0.207,1.033,0.413c0.413,0.62,0.62,1.24,0.413,2.067
	C128.977,389.321,128.564,392.214,127.737,396.762z"/>
<path fill="#92864F" d="M536.786,412.264c-0.207-5.167-2.067-10.128-5.167-14.055c-3.307-4.961-8.268-11.161-15.709-11.368h-32.864
	v-5.581l-6.821-9.715h-23.356v28.524l-0.827-0.62c-1.86-6.408-7.028-11.368-13.642-12.815h-0.207H398.92v15.089
	c-1.033-1.24,0.413-0.62-2.48-4.341c-2.894-3.72-8.474-10.748-15.915-10.748h-60.561v15.709c-1.447-3.514-3.721-6.614-6.614-9.301
	c-5.581-4.961-13.435-7.441-23.15-7.441c-8.061-0.413-16.122,2.274-22.323,7.234v-11.988l-6.821-9.715h-23.977v15.295h-14.882
	h-0.413c-11.782,1.24-20.256,11.988-20.256,26.664c-0.207,8.888,2.687,17.776,8.061,24.803c2.48,3.1,10.128,9.921,18.809,11.161
	h0.413h39.065v-12.608c1.447,2.687,3.514,4.754,5.994,6.408c5.167,4.341,13.435,6.201,23.15,6.201
	c7.648,0.413,15.295-1.654,21.496-5.994c1.033-0.827,1.86-1.654,2.687-2.687l8.681,8.681H348.9v-7.028l7.234,7.028l19.843,0.207
	v-7.441l7.854,7.234h18.809c0,0,0-8.681,0.207-8.474c2.894,5.581,8.888,8.888,15.295,8.474h37.412v-6.614l7.028,6.614h17.776v-6.408
	l6.614,6.201h21.29l0.207-7.028l7.028,7.028h21.496L536.786,412.264L536.786,412.264z M236.872,421.978h-7.234h-0.62
	c0.207-1.24,0.62-2.687,1.24-3.72c1.24-2.48,3.721-4.341,6.614-4.547L236.872,421.978z M293.713,419.498
	c-1.447,1.24-3.307,2.067-5.167,1.86h-1.033c0,0,0,0,0-0.207c-0.207-2.274,0.62-4.341,2.067-5.994c1.447-1.24,3.307-1.86,5.167-1.86
	h0.827C295.78,415.571,295.16,417.845,293.713,419.498z"/>
<path fill="#231F20" d="M242.866,376.919v15.295h-20.669c-10.128,1.033-14.675,11.368-14.882,21.083
	c-0.207,10.128,4.341,21.703,15.089,23.15h32.864v-59.528H242.866z M242.866,427.766h-11.988c-3.514,0-6.614-1.86-8.061-4.754
	c-2.687-5.374-2.48-11.575,0.207-16.742c1.447-2.894,4.547-4.961,7.854-4.961h11.988V427.766z"/>
<path fill="#FFFFFF" d="M256.508,437.894h-34.311c-11.575-1.654-16.536-13.849-16.329-24.597c0.207-10.335,5.374-21.29,16.329-22.53
	h19.429v-15.295h15.089L256.508,437.894L256.508,437.894z M242.866,376.919v15.295h-20.669
	c-10.128,1.033-14.675,11.368-14.882,21.083c-0.207,10.128,4.341,21.703,15.089,23.15h32.864v-59.528H242.866z M230.878,427.766
	c-3.514,0-6.614-1.86-8.061-4.754c-2.687-5.374-2.48-11.575,0.207-16.742c1.447-2.894,4.547-4.961,7.854-4.961h11.988v26.664
	C242.866,427.766,230.878,427.766,230.878,427.766z M241.419,402.756h-10.541c-2.894,0-5.374,1.654-6.614,4.341
	c-2.48,4.754-2.687,10.541-0.207,15.295c1.24,2.48,3.927,4.134,6.821,4.134h10.541C241.419,426.526,241.419,402.756,241.419,402.756
	z"/>
<rect x="458.035" y="376.506" fill="#92864F" width="13.022" height="10.335"/>
<rect x="459.275" y="465.591" fill="#92864F" width="6.614" height="6.408"/>
<polygon fill="#DBB740" points="195.326,471.792 207.935,471.792 224.884,455.256 212.069,455.256 "/>
<polygon fill="#DBB740" points="219.096,471.792 231.704,471.792 248.653,455.256 236.045,455.256 "/>
<polygon fill="#DBB740" points="242.866,471.792 255.681,471.792 272.423,455.256 259.815,455.256 "/>
<polygon fill="#DBB740" points="266.843,471.792 279.451,471.792 296.4,455.256 283.585,455.256 "/>
<polygon fill="#DBB740" points="290.612,471.792 303.221,471.792 320.17,455.256 307.561,455.256 "/>
<polygon fill="#DBB740" points="314.382,471.792 326.991,471.792 343.94,455.256 331.331,455.256 "/>
<polygon fill="#DBB740" points="338.152,471.792 350.967,471.792 367.709,455.256 355.101,455.256 "/>
<polygon fill="#DBB740" points="362.129,471.792 374.737,471.792 391.686,455.256 379.078,455.256 "/>
<polygon fill="#DBB740" points="385.899,471.792 398.507,471.792 415.456,455.256 402.847,455.256 "/>
<polygon fill="#DBB740" points="409.668,471.792 422.483,471.792 439.226,455.256 426.617,455.256 "/>
<polygon fill="#DBB740" points="433.645,471.792 446.253,471.792 463.202,455.256 450.387,455.256 "/>
<path fill="#92864F" d="M484.905,471.585h-7.234c-2.274,0.207-4.547-0.62-6.201-2.274c-1.654-1.447-2.48-3.721-2.48-5.994
	c0-2.067,0.62-4.341,2.067-5.787c1.654-1.654,3.927-2.687,6.408-2.48h7.028v3.721h-6.408c-1.24,0-2.274,0.62-3.1,1.447
	c-0.827,0.827-1.24,2.067-1.24,3.307c0,1.24,0.413,2.274,1.24,3.1c0.827,0.827,1.86,1.447,3.1,1.447h6.614L484.905,471.585z"/>
<path fill="#92864F" d="M508.468,462.904c0.207,2.48-0.827,4.961-2.894,6.614c-2.067,1.447-4.547,2.274-7.028,2.067
	c-2.48,0.207-4.961-0.62-7.028-1.86c-2.067-1.654-3.1-4.341-2.894-6.821c-0.207-2.48,1.033-4.754,3.1-6.201
	c2.067-1.447,4.341-2.067,6.821-2.067c2.48-0.207,4.961,0.62,7.028,2.067S508.675,460.63,508.468,462.904z M503.301,462.904
	c0.207-2.48-1.654-4.754-4.341-4.754c-0.207,0-0.413,0-0.62,0c-1.24,0-2.48,0.413-3.307,1.447c-0.827,1.033-1.447,2.274-1.24,3.514
	c0,1.447,0.413,2.894,1.24,3.927c0.827,1.033,2.067,1.447,3.514,1.447c1.447,0.207,2.687-0.413,3.721-1.447
	C503.094,465.591,503.508,464.351,503.301,462.904L503.301,462.904z"/>
<path fill="#92864F" d="M537.199,471.585h-4.341V461.25c0-0.413,0-0.62-0.207-1.033c-0.207-0.207-0.207-0.62-0.413-0.827
	c-0.207-0.207-0.413-0.413-0.827-0.62c-0.207-0.207-0.62-0.207-0.827-0.207h-3.514v12.815h-4.547v-12.815h-5.167v12.815h-4.754
	v-16.536h18.189c0.827,0,1.86,0,2.687,0.413c0.827,0.207,1.447,0.62,1.86,1.24c0.413,0.413,0.827,1.033,1.24,1.654
	c0.207,0.413,0.413,1.033,0.413,1.654L537.199,471.585z"/>
<path fill="#231F20" d="M316.243,413.711c0.413-6.201-2.067-12.402-6.821-16.536c-4.547-3.927-10.955-5.994-19.429-5.994
	c-6.821-0.413-13.642,1.86-19.016,6.201c-4.754,4.134-7.441,9.921-7.234,16.122c-0.207,6.201,2.274,12.402,6.821,16.536
	c4.547,4.134,11.161,6.201,19.429,6.201c8.268,0,14.469-2.067,19.223-5.994C313.969,426.112,316.449,420.118,316.243,413.711z
	 M298.467,423.012c-2.067,2.48-5.374,3.72-8.474,3.72c-3.307,0.207-6.614-1.033-8.888-3.514c-2.067-2.894-3.1-6.201-2.894-9.715
	c-0.207-3.514,1.033-6.821,3.1-9.508c4.754-4.754,12.608-4.754,17.362,0c2.067,2.687,3.1,6.201,2.687,9.715
	C301.567,416.811,300.534,420.325,298.467,423.012z"/>
<path fill="#FFFFFF" d="M290.199,437.894c-8.681,0-15.502-2.274-20.256-6.614c-4.961-4.547-7.648-10.955-7.234-17.569
	c-0.207-6.614,2.687-13.022,7.648-17.362c5.581-4.547,12.815-6.821,19.843-6.408c8.681,0,15.502,2.067,20.256,6.408
	c4.961,4.547,7.648,10.955,7.234,17.569c0.207,6.614-2.48,13.228-7.441,17.569C305.288,435.827,298.467,437.894,290.199,437.894
	L290.199,437.894z M290.199,391.388c-6.821-0.413-13.642,1.86-19.016,6.201c-4.754,4.134-7.441,9.921-7.234,16.122
	c-0.207,6.201,2.274,12.402,6.821,16.536c4.547,4.134,11.161,6.201,19.429,6.201c8.268,0,14.469-2.067,19.223-5.994
	c4.754-4.134,7.234-10.335,7.028-16.536c0.413-6.201-2.067-12.402-6.821-16.536C304.874,393.455,298.467,391.388,290.199,391.388
	L290.199,391.388z M289.786,426.732c-3.307,0.207-6.614-1.033-8.888-3.514c-2.067-2.894-3.1-6.201-2.894-9.715
	c-0.207-3.514,1.033-6.821,3.1-9.508c4.754-4.754,12.608-4.754,17.362,0c2.067,2.687,3.1,6.201,2.687,9.715
	c0.207,3.514-0.827,6.821-3.1,9.508C296.193,425.492,293.093,426.732,289.786,426.732L289.786,426.732z M289.786,401.722
	c-2.894-0.207-5.581,1.033-7.441,3.1c-2.067,2.48-2.894,5.581-2.894,8.681c-0.207,3.1,0.62,6.201,2.48,8.888
	c2.067,2.067,4.754,3.1,7.854,2.894c2.894,0.207,5.581-1.033,7.441-3.1c1.86-2.48,2.894-5.581,2.687-8.681
	c0.207-3.1-0.62-6.201-2.48-8.681C295.573,402.549,292.679,401.516,289.786,401.722L289.786,401.722z"/>
<path fill="#231F20" d="M379.904,408.957v27.49h10.128v-33.898c0.207-5.374-3.927-10.128-9.301-10.335h-0.207H325.75v44.026h11.988
	v-34.518h14.469v34.725h11.368v-34.518h9.921c3.514,0,6.408,3.1,6.408,6.614C379.904,408.543,379.904,408.75,379.904,408.957z"/>
<path fill="#FFFFFF" d="M391.479,437.894h-13.022v-28.937c0.413-2.687-1.654-5.374-4.341-5.581c-0.207,0-0.413,0-0.62,0h-8.474
	v34.518H350.76v-34.518h-11.782v34.518h-14.882v-47.126h56.221c6.201,0.207,11.161,5.374,10.955,11.575v0.207L391.479,437.894
	C391.273,437.894,391.479,437.894,391.479,437.894z M379.904,436.447h10.128v-33.898c0.207-5.374-3.927-10.128-9.301-10.335h-0.207
	H325.75v44.026h11.988v-34.518h14.469v34.725h11.368v-34.518h9.921c3.514,0,6.614,2.894,6.614,6.408c0,0.207,0,0.413,0,0.62
	L379.904,436.447L379.904,436.447z"/>
<path fill="#231F20" d="M409.875,436.447h37.205c0-4.754,0-30.177,0-32.451s-2.274-10.335-9.715-11.575h-32.658v9.301h22.736
	c5.167,0,7.028,5.167,7.234,7.854v0.827h-24.803c-4.961,0-8.268,7.441-8.268,14.262
	C401.607,430.246,403.881,436.447,409.875,436.447z M415.869,419.498c1.033-1.24,2.48-1.86,4.134-1.86h14.469v11.575h-14.469
	c-3.1,0.207-5.581-2.274-5.787-5.167c0-0.207,0-0.413,0-0.413C414.216,421.978,414.836,420.738,415.869,419.498L415.869,419.498z"/>
<path fill="#FFFFFF" d="M448.527,437.894h-38.652c-5.787,0-9.715-5.167-9.715-13.435c0-7.854,3.72-15.915,9.715-15.915h23.15
	c-0.413-1.654-1.654-5.581-5.787-5.581h-24.183v-12.195h34.518c8.268,1.654,10.955,10.335,10.955,13.022c0,2.48,0,33.278,0,33.278
	V437.894L448.527,437.894z M404.708,401.516h22.736c5.167,0,7.028,5.167,7.234,7.854v0.827h-24.803
	c-4.961,0-8.268,7.441-8.268,14.262c0,5.787,2.067,11.988,8.268,11.988h37.205c0-4.754,0-30.177,0-32.451
	s-2.274-10.335-9.715-11.575h-32.864L404.708,401.516L404.708,401.516z M434.472,429.213h-14.469
	c-3.1,0.207-5.581-2.274-5.787-5.167c0-0.207,0-0.413,0-0.413c0-1.447,0.413-2.894,1.447-3.927c1.033-1.24,2.48-1.86,4.134-1.86
	h14.469L434.472,429.213L434.472,429.213z M420.003,419.085c-1.24,0-2.274,0.413-3.1,1.447c-0.62,0.827-1.033,1.86-1.033,3.1
	c0,2.274,1.86,4.134,4.134,4.134c0,0,0,0,0.207,0h13.022v-8.474L420.003,419.085z"/>
<rect x="458.862" y="392.628" fill="#231F20" width="11.575" height="43.819"/>
<path fill="#FFFFFF" d="M471.883,437.894h-14.469v-46.713h14.469V437.894z M458.862,436.447h11.575v-43.819h-11.575V436.447z"/>
<path fill="#231F20" d="M506.195,401.722c1.654-0.207,3.307,0.62,4.341,1.86c0.827,1.033,1.033,2.48,1.033,3.721v28.937h12.608
	v-33.485c-0.207-3.72-2.067-9.921-8.268-10.128h-33.691v43.613H494v-34.518H506.195L506.195,401.722z"/>
<path fill="#FFFFFF" d="M525.624,437.894h-15.502V407.51c0-2.067-0.62-4.341-4.134-4.134h-10.335v34.518h-14.675v-46.713h35.138
	c6.408,0,9.508,5.787,9.715,11.575L525.624,437.894L525.624,437.894z M511.569,436.447h12.608v-33.691
	c-0.207-3.72-2.067-9.921-8.268-10.128h-33.691v43.613H494v-34.518h12.195c1.654-0.207,3.307,0.62,4.341,1.86
	c0.827,1.033,1.033,2.48,1.033,3.721V436.447L511.569,436.447z"/>
<path fill="#FECD27" d="M172.176,376.506l-0.207,0.827c-1.86,5.581-2.894,6.614-10.955,8.681l-1.86,11.782h7.648l-9.301,61.388
	h16.536l12.608-82.678H172.176z"/>
<path fill="#FFFFFF" d="M176.517,461.871h-22.53l9.301-61.595h-7.854l2.894-17.156l1.033-0.207c8.061-1.86,8.268-2.067,9.921-6.821
	l0.62-1.86l0.413-1.033h20.049L176.517,461.871z M157.501,458.977h16.536l12.608-82.678l-14.469,0.207l-0.207,0.827
	c-1.86,5.581-2.687,6.614-10.955,8.681l-1.86,11.782h7.648L157.501,458.977L157.501,458.977z"/>
<path fill="#231F20" d="M530.998,372.579c2.48,0,4.547,2.067,4.547,4.547c0,2.48-2.067,4.547-4.547,4.547s-4.547-2.067-4.547-4.547
	C526.451,374.645,528.518,372.579,530.998,372.579 M530.998,371.338c-3.307,0-5.787,2.687-5.787,5.787
	c0,3.1,2.687,5.787,5.787,5.787c3.307,0,5.787-2.687,5.787-5.787C536.785,374.025,534.305,371.338,530.998,371.338L530.998,371.338z
	"/>
<rect x="458.862" y="377.332" fill="#231F20" width="11.575" height="8.681"/>
<path fill="#FFFFFF" d="M471.883,387.461h-14.469v-11.782h14.469V387.461L471.883,387.461z M458.862,386.014h11.575v-8.681h-11.575
	V386.014z"/>
<g>
	<path d="M528.724,374.232c0.413,0,1.033-0.207,1.86-0.207c0.827,0,1.447,0.207,1.86,0.413c0.413,0.207,0.62,0.62,0.62,1.24
		c0,0.827-0.62,1.24-1.033,1.447l0,0c0.413,0.207,0.62,0.62,0.827,1.033c0.207,0.62,0.413,1.447,0.413,1.654h-1.447
		c0-0.207-0.207-0.62-0.413-1.447c-0.207-0.827-0.413-0.827-1.033-1.033h-0.413v2.274h-1.24L528.724,374.232L528.724,374.232z
		 M530.171,376.712h0.62c0.62,0,1.034-0.413,1.034-0.827c0-0.62-0.413-0.827-1.034-0.827c-0.413,0-0.413,0-0.62,0V376.712z"/>
</g>
</svg>
